<svg width="25" height="20" viewBox="0 0 25 20" fill="none" xmlns="http://www.w3.org/2000/svg">
<path id="Vector" d="M1.0125 2.50083V2.5C1.0125 1.67075 1.6838 1 2.5 1H22.5C23.3227 1 24 1.67728 24 2.5V17.5C24 18.3227 23.3227 19 22.5 19H2.5C1.6774 19 1.00019 18.3229 1 17.5004C1 17.5002 1 17.5001 1 17.5L1.0125 2.50083ZM22.5301 6.16043L22.5301 6.16048L22.5391 6.15477C23.1306 5.7762 23.5 5.12559 23.5 4.4125C23.5 2.77705 21.7168 1.82213 20.3517 2.66033L20.3517 2.6603L20.3448 2.66464L12.5 7.57055L4.65523 2.66464L4.65524 2.66462L4.64826 2.66033C3.28321 1.82214 1.5 2.77705 1.5 4.4125C1.5 5.12559 1.86943 5.7762 2.46095 6.15477L2.46092 6.15482L2.46989 6.16043L11.3074 11.6854L11.3075 11.6855C12.0318 12.1382 12.9682 12.1382 13.6925 11.6855L13.6926 11.6854L22.5301 6.16043Z" stroke="white" stroke-width="2"/>
</svg>
