<svg width="21" height="16" viewBox="0 0 21 16" fill="none" xmlns="http://www.w3.org/2000/svg">
<path id="Vector" d="M19.5 3.53C19.5 2.06205 17.8993 1.20714 16.6767 1.95783L16.6767 1.9578L16.6698 1.96214L10.5 5.82055L4.33023 1.96214L4.33024 1.96212L4.32326 1.95783C3.15376 1.23971 1.63821 1.99087 1.50888 3.34244L1.51 2.00083V2C1.51 1.44575 1.9588 1 2.5 1H18.5C19.0477 1 19.5 1.45228 19.5 2V3.53ZM19.5 3.53C19.5 4.17059 19.1681 4.7537 18.6391 5.09227L18.6301 5.09798L18.6301 5.09793L11.5601 9.51793L11.56 9.518C10.9157 9.92067 10.0843 9.92067 9.44 9.518L9.43989 9.51793L2.36989 5.09793L2.36092 5.09232L2.36095 5.09227C1.88134 4.78532 1.56372 4.27738 1.50858 3.70784L1.5 14C1.5 14.0001 1.5 14.0002 1.5 14.0003C1.50019 14.5479 1.9524 15 2.5 15H18.5C19.0477 15 19.5 14.5477 19.5 14V3.53Z" stroke="white" stroke-width="2"/>
</svg>
